<mxfile host="app.diagrams.net" modified="2024-04-12T09:37:15.877Z" agent="Mozilla/5.0 (X11; Ubuntu; Linux x86_64; rv:124.0) Gecko/20100101 Firefox/124.0" etag="rZSmfhGGSS-IR246GSDW" version="24.2.3" type="github">
  <diagram name="Page-1" id="wTHdm3syyfWWo2HaGcrf">
    <mxGraphModel dx="886" dy="476" grid="1" gridSize="10" guides="1" tooltips="1" connect="1" arrows="1" fold="1" page="1" pageScale="1" pageWidth="1169" pageHeight="827" math="0" shadow="0">
      <root>
        <mxCell id="0" />
        <mxCell id="1" parent="0" />
        <mxCell id="3LxVpSmYkbINxyVwIfEu-4" value="" style="group" parent="1" vertex="1" connectable="0">
          <mxGeometry x="110" y="60" width="480" height="680" as="geometry" />
        </mxCell>
        <mxCell id="w7OpjPT1Qjktew3DF3Pp-16" value="&lt;div&gt;Availability zone:&lt;/div&gt;&lt;div&gt;ap-south-1a&lt;br&gt;&lt;br&gt;&lt;/div&gt;" style="sketch=0;outlineConnect=0;gradientColor=none;html=1;whiteSpace=wrap;fontSize=12;fontStyle=0;shape=mxgraph.aws4.group;grIcon=mxgraph.aws4.group_availability_zone;strokeColor=#545B64;fillColor=none;verticalAlign=top;align=left;spacingLeft=30;fontColor=#545B64;dashed=1;movable=1;resizable=1;rotatable=1;deletable=1;editable=1;locked=0;connectable=1;" parent="3LxVpSmYkbINxyVwIfEu-4" vertex="1">
          <mxGeometry x="40" y="210" width="210" height="410.67" as="geometry" />
        </mxCell>
        <mxCell id="w7OpjPT1Qjktew3DF3Pp-67" value="Region: ap-south-1" style="points=[[0,0],[0.25,0],[0.5,0],[0.75,0],[1,0],[1,0.25],[1,0.5],[1,0.75],[1,1],[0.75,1],[0.5,1],[0.25,1],[0,1],[0,0.75],[0,0.5],[0,0.25]];outlineConnect=0;gradientColor=none;html=1;whiteSpace=wrap;fontSize=12;fontStyle=0;container=1;pointerEvents=0;collapsible=0;recursiveResize=0;shape=mxgraph.aws4.group;grIcon=mxgraph.aws4.group_region;strokeColor=#00A4A6;fillColor=none;verticalAlign=top;align=left;spacingLeft=30;fontColor=#147EBA;dashed=1;movable=1;resizable=1;rotatable=1;deletable=1;editable=1;locked=0;connectable=1;" parent="3LxVpSmYkbINxyVwIfEu-4" vertex="1">
          <mxGeometry x="10" y="120" width="450" height="540" as="geometry" />
        </mxCell>
        <mxCell id="E69val4XPUxIQdx8RpWY-33" value="AWS Cloud" style="points=[[0,0],[0.25,0],[0.5,0],[0.75,0],[1,0],[1,0.25],[1,0.5],[1,0.75],[1,1],[0.75,1],[0.5,1],[0.25,1],[0,1],[0,0.75],[0,0.5],[0,0.25]];outlineConnect=0;gradientColor=none;html=1;whiteSpace=wrap;fontSize=12;fontStyle=0;container=0;pointerEvents=0;collapsible=0;recursiveResize=0;shape=mxgraph.aws4.group;grIcon=mxgraph.aws4.group_aws_cloud_alt;strokeColor=#232F3E;fillColor=none;verticalAlign=top;align=left;spacingLeft=30;fontColor=#232F3E;dashed=0;movable=1;resizable=1;rotatable=1;deletable=1;editable=1;locked=0;connectable=1;" parent="3LxVpSmYkbINxyVwIfEu-4" vertex="1">
          <mxGeometry y="90" width="480" height="590" as="geometry" />
        </mxCell>
        <mxCell id="w7OpjPT1Qjktew3DF3Pp-6" value="&lt;div&gt;&lt;font color=&quot;#000000&quot;&gt;VPC: gal-vpc&lt;br&gt;&lt;/font&gt;&lt;/div&gt;" style="points=[[0,0],[0.25,0],[0.5,0],[0.75,0],[1,0],[1,0.25],[1,0.5],[1,0.75],[1,1],[0.75,1],[0.5,1],[0.25,1],[0,1],[0,0.75],[0,0.5],[0,0.25]];outlineConnect=0;gradientColor=none;html=1;whiteSpace=wrap;fontSize=12;fontStyle=0;container=0;pointerEvents=0;collapsible=0;recursiveResize=0;shape=mxgraph.aws4.group;grIcon=mxgraph.aws4.group_vpc2;strokeColor=#8C4FFF;fillColor=none;verticalAlign=top;align=left;spacingLeft=30;fontColor=#AAB7B8;dashed=0;movable=1;resizable=1;rotatable=1;deletable=1;editable=1;locked=0;connectable=1;" parent="3LxVpSmYkbINxyVwIfEu-4" vertex="1">
          <mxGeometry x="30" y="164.31" width="240" height="475.69" as="geometry" />
        </mxCell>
        <mxCell id="w7OpjPT1Qjktew3DF3Pp-78" style="edgeStyle=orthogonalEdgeStyle;rounded=0;orthogonalLoop=1;jettySize=auto;html=1;startArrow=classic;startFill=1;endArrow=none;endFill=0;" parent="3LxVpSmYkbINxyVwIfEu-4" source="w7OpjPT1Qjktew3DF3Pp-15" target="w7OpjPT1Qjktew3DF3Pp-56" edge="1">
          <mxGeometry relative="1" as="geometry">
            <Array as="points">
              <mxPoint x="276" y="150" />
            </Array>
          </mxGeometry>
        </mxCell>
        <mxCell id="w7OpjPT1Qjktew3DF3Pp-79" value="Internet" style="edgeLabel;html=1;align=center;verticalAlign=middle;resizable=0;points=[];" parent="w7OpjPT1Qjktew3DF3Pp-78" vertex="1" connectable="0">
          <mxGeometry x="0.7695" y="1" relative="1" as="geometry">
            <mxPoint as="offset" />
          </mxGeometry>
        </mxCell>
        <mxCell id="w7OpjPT1Qjktew3DF3Pp-15" value="Internet gateway" style="sketch=0;outlineConnect=0;fontColor=#232F3E;gradientColor=none;fillColor=#8C4FFF;strokeColor=none;dashed=0;verticalLabelPosition=bottom;verticalAlign=top;align=center;fontSize=12;fontStyle=0;aspect=fixed;pointerEvents=1;shape=mxgraph.aws4.internet_gateway;html=1;movable=1;resizable=1;rotatable=1;deletable=1;editable=1;locked=0;connectable=1;" parent="3LxVpSmYkbINxyVwIfEu-4" vertex="1">
          <mxGeometry x="138.31000000000003" y="140" width="46.68" height="46.68" as="geometry" />
        </mxCell>
        <mxCell id="w7OpjPT1Qjktew3DF3Pp-56" value="" style="sketch=0;outlineConnect=0;fontColor=#232F3E;gradientColor=none;fillColor=#232F3D;strokeColor=none;dashed=0;verticalLabelPosition=bottom;verticalAlign=top;align=center;html=1;fontSize=12;fontStyle=0;aspect=fixed;pointerEvents=1;shape=mxgraph.aws4.internet;" parent="3LxVpSmYkbINxyVwIfEu-4" vertex="1">
          <mxGeometry x="236.71000000000004" width="78" height="48" as="geometry" />
        </mxCell>
        <mxCell id="w7OpjPT1Qjktew3DF3Pp-85" value="&lt;div&gt;ECR&lt;/div&gt;&lt;div&gt;gal-cowsay&lt;br&gt;&lt;/div&gt;" style="sketch=0;points=[[0,0,0],[0.25,0,0],[0.5,0,0],[0.75,0,0],[1,0,0],[0,1,0],[0.25,1,0],[0.5,1,0],[0.75,1,0],[1,1,0],[0,0.25,0],[0,0.5,0],[0,0.75,0],[1,0.25,0],[1,0.5,0],[1,0.75,0]];outlineConnect=0;fontColor=#232F3E;fillColor=#ED7100;strokeColor=#ffffff;dashed=0;verticalLabelPosition=bottom;verticalAlign=top;align=center;html=1;fontSize=12;fontStyle=0;aspect=fixed;shape=mxgraph.aws4.resourceIcon;resIcon=mxgraph.aws4.ecr;" parent="3LxVpSmYkbINxyVwIfEu-4" vertex="1">
          <mxGeometry x="330" y="275.9999999999999" width="78" height="78" as="geometry" />
        </mxCell>
        <mxCell id="w7OpjPT1Qjktew3DF3Pp-89" value="" style="edgeStyle=orthogonalEdgeStyle;rounded=0;orthogonalLoop=1;jettySize=auto;html=1;startArrow=classic;startFill=1;endArrow=none;endFill=0;" parent="3LxVpSmYkbINxyVwIfEu-4" source="w7OpjPT1Qjktew3DF3Pp-22" target="w7OpjPT1Qjktew3DF3Pp-15" edge="1">
          <mxGeometry relative="1" as="geometry" />
        </mxCell>
        <mxCell id="3LxVpSmYkbINxyVwIfEu-3" value="" style="group" parent="3LxVpSmYkbINxyVwIfEu-4" vertex="1" connectable="0">
          <mxGeometry x="90" y="282.18" width="143.29" height="239.94" as="geometry" />
        </mxCell>
        <mxCell id="w7OpjPT1Qjktew3DF3Pp-22" value="&lt;div style=&quot;&quot;&gt;&lt;font style=&quot;font-size: 12px;&quot;&gt;Public subnet&lt;/font&gt;&lt;/div&gt;" style="points=[[0,0],[0.25,0],[0.5,0],[0.75,0],[1,0],[1,0.25],[1,0.5],[1,0.75],[1,1],[0.75,1],[0.5,1],[0.25,1],[0,1],[0,0.75],[0,0.5],[0,0.25]];outlineConnect=0;gradientColor=none;html=1;whiteSpace=wrap;fontSize=12;fontStyle=0;container=1;pointerEvents=0;collapsible=0;recursiveResize=0;shape=mxgraph.aws4.group;grIcon=mxgraph.aws4.group_security_group;grStroke=0;strokeColor=#7AA116;fillColor=#F2F6E8;verticalAlign=top;align=left;spacingLeft=30;fontColor=#248814;dashed=0;" parent="3LxVpSmYkbINxyVwIfEu-3" vertex="1">
          <mxGeometry width="143.29" height="239.94" as="geometry" />
        </mxCell>
        <mxCell id="dsOS1e7ftnaVwsFIcLX3-2" value="Security group" style="fillColor=none;strokeColor=#DD3522;verticalAlign=top;fontStyle=0;fontColor=#DD3522;whiteSpace=wrap;html=1;" vertex="1" parent="w7OpjPT1Qjktew3DF3Pp-22">
          <mxGeometry x="13.300000000000011" y="123.91000000000003" width="116.71" height="106.09" as="geometry" />
        </mxCell>
        <mxCell id="w7OpjPT1Qjktew3DF3Pp-21" value="&lt;div&gt;EC2:&lt;/div&gt;&lt;div&gt;jenkins-gal&lt;/div&gt;" style="sketch=0;points=[[0,0,0],[0.25,0,0],[0.5,0,0],[0.75,0,0],[1,0,0],[0,1,0],[0.25,1,0],[0.5,1,0],[0.75,1,0],[1,1,0],[0,0.25,0],[0,0.5,0],[0,0.75,0],[1,0.25,0],[1,0.5,0],[1,0.75,0]];outlineConnect=0;fontColor=#232F3E;fillColor=#ED7100;strokeColor=#ffffff;dashed=0;verticalLabelPosition=bottom;verticalAlign=top;align=center;html=1;fontSize=12;fontStyle=0;aspect=fixed;shape=mxgraph.aws4.resourceIcon;resIcon=mxgraph.aws4.ec2;" parent="3LxVpSmYkbINxyVwIfEu-3" vertex="1">
          <mxGeometry x="48.31" y="37.82404802216405" width="42.28" height="42.28" as="geometry" />
        </mxCell>
        <mxCell id="3LxVpSmYkbINxyVwIfEu-1" value="&lt;div&gt;EC2:&lt;/div&gt;&lt;div&gt;gal-prod&lt;/div&gt;" style="sketch=0;points=[[0,0,0],[0.25,0,0],[0.5,0,0],[0.75,0,0],[1,0,0],[0,1,0],[0.25,1,0],[0.5,1,0],[0.75,1,0],[1,1,0],[0,0.25,0],[0,0.5,0],[0,0.75,0],[1,0.25,0],[1,0.5,0],[1,0.75,0]];outlineConnect=0;fontColor=#232F3E;fillColor=#ED7100;strokeColor=#ffffff;dashed=0;verticalLabelPosition=bottom;verticalAlign=top;align=center;html=1;fontSize=12;fontStyle=0;aspect=fixed;shape=mxgraph.aws4.resourceIcon;resIcon=mxgraph.aws4.ec2;" parent="3LxVpSmYkbINxyVwIfEu-3" vertex="1">
          <mxGeometry x="50.50999999999999" y="147.82404802216405" width="42.28" height="42.28" as="geometry" />
        </mxCell>
        <mxCell id="dsOS1e7ftnaVwsFIcLX3-1" value="Security group" style="fillColor=none;strokeColor=#DD3522;verticalAlign=top;fontStyle=0;fontColor=#DD3522;whiteSpace=wrap;html=1;" vertex="1" parent="3LxVpSmYkbINxyVwIfEu-4">
          <mxGeometry x="103.29" y="300" width="116.71" height="106.09" as="geometry" />
        </mxCell>
      </root>
    </mxGraphModel>
  </diagram>
</mxfile>
